<svg width="56" height="56" viewBox="0 0 56 56" fill="none" xmlns="http://www.w3.org/2000/svg">
<path d="M0 8C0 3.58172 3.58172 0 8 0H48C52.4183 0 56 3.58172 56 8V48C56 52.4183 52.4183 56 48 56H8C3.58172 56 0 52.4183 0 48V8Z" fill="#2137FC"/>
<path fill-rule="evenodd" clip-rule="evenodd" d="M16.1473 24.7771L17.1571 23.4486C17.6149 22.8463 18.3677 22.5632 19.0975 22.7189C19.6627 22.8394 20.0253 23.406 19.9075 23.9843C19.8978 24.0322 19.8848 24.0793 19.8688 24.1254C19.03 26.533 18.7629 28.1233 19.0677 28.8961C20.3224 27.3704 26.7322 17.4213 28.7581 16.949C29.4345 16.7914 30.1077 17.2247 30.2618 17.9169C30.3139 18.1511 30.3009 18.3956 30.2242 18.6226C28.3099 24.2872 27.4994 27.7124 27.7928 28.8983C28.8038 27.4423 30.3055 25.4828 32.2978 23.0197C33.0461 22.0945 34.2401 21.6798 35.3841 21.9479C36.3901 22.1836 37.0188 23.2093 36.7886 24.2388C36.7871 24.2456 36.7857 24.2523 36.7839 24.2591C36.0907 27.21 35.8337 28.9365 36.0131 29.4386C36.0922 29.377 36.1725 29.3137 36.2541 29.2489C37.1679 28.523 38.312 28.1693 39.4656 28.2559L48.4167 28.9282L42.4863 29.6183C40.8307 29.811 39.3143 30.6588 38.2614 31.9805L36.8422 33.7619C36.3777 34.3451 35.6638 34.659 34.9307 34.6025C34.2022 34.5464 33.6 33.9996 33.4589 33.2662C33.1124 31.4646 33.0568 29.3381 33.2924 26.8866C31.5117 29.6097 29.9667 33.5259 28.6573 38.6354C28.4322 39.514 27.6564 40.1265 26.7689 40.1265C25.9215 40.1265 25.2273 39.4375 25.2012 38.5706L24.8089 25.5057L21.0136 33.1602C20.6186 33.9568 19.7495 34.382 18.8957 34.1961C17.9912 33.9992 17.243 33.3523 16.9022 32.4725L16.477 31.3745C15.8752 29.8209 14.517 28.7076 12.9042 28.4458C11.1306 28.158 9.35696 27.8702 7.58334 27.5824L11.534 27.2965C13.3515 27.1649 15.0287 26.249 16.1473 24.7771Z" fill="white"/>
</svg>
